<mxfile host="65bd71144e">
    <diagram id="uH-Ey2n1wFhpkCpBx1c_" name="Page-1">
        <mxGraphModel dx="906" dy="537" grid="1" gridSize="10" guides="1" tooltips="1" connect="1" arrows="1" fold="1" page="1" pageScale="1" pageWidth="1169" pageHeight="827" math="0" shadow="0">
            <root>
                <mxCell id="0"/>
                <mxCell id="1" parent="0"/>
                <mxCell id="8" value="" style="shape=image;verticalLabelPosition=bottom;labelBackgroundColor=default;verticalAlign=top;imageAspect=0;image=data:image/png,iVBORw0KGgoAAAANSUhEUgAAAwoAAAF7CAYAAABy2XxsAAAAOXRFWHRTb2Z0d2FyZQBNYXRwbG90bGliIHZlcnNpb24zLjUuMywgaHR0cHM6Ly9tYXRwbG90bGliLm9yZy/NK7nSAAAACXBIWXMAAA9hAAAPYQGoP6dpAAAZ1UlEQVR4nO3dy45t2ZUW4Dn3LSLOJW9OZ+GiTBYqqpBAAvEYNHgEGrwFLV6AJ6BBm9cAXoFGSVWSsassV6Wdmc4858R1770WDYOEPDJL/3DG9kX6vmZoaMy15ppzrvVHNGLe/tf/tI5ft92WH32bud/ntXOTFW5m3PN3Lr2njnX5/R+7O37Ydz2f855pbWc9X11nhUtjnta6xb619HQMx897zvT+O/vud732wvuP57Nh7vIzrzWnjWf6u9Sa03CdxGt0jHw/zwu8RzaNdd85yzr3/9wudZ3pPnl8iFuma289XmDfd55943zMz/z8fJzX2Xss/ib7PRB/GzTO3Pj+O+u+s59Ca+PdeIm1/4ezSgAAgN8aQQEAACgEBQAAoBAUAACAQlAAAAAKQQEAACgEBQAAoBAUAACAQlAAAACK3ebV6/rTzn9I7Uj/C17nP2ou4X/B6/zX08Z/4Uv/q2LrP492/vNrKv6vjhfKjuH8t+ZpfwjrGvN5iTXaMNfwP0N39mj6nyI7/216u2vUhs+09V+5T1FZ/J+2fx9cYp4ucJa39uglpHuv8590L6H1n8YvcE/p+bhtrKenp7w2/Y/D+6u4ZbqfZ+O/PV/kLF/z7414P3X+y3v6DdH5z8yX+C5snCXx3Xe+9Tpzmur8Z+Tw+3UunX3//N+P/qIAAAAUggIAAFAICgAAQCEoAAAAhaAAAAAUggIAAFAICgAAQCEoAAAAhaAAAAAUggIAAFAICgAAQCEoAAAAhaAAAAAUggIAAFAICgAAQCEoAAAAhaAAAAAUggIAAFDsxuHw3TrMRtZYl99dz2XNe263celM5+98zsdPa+fMe66N+0917mkTXmvnOS2nsK5xnenaa6yR1npO+24a46fPqbNGjo+N2rCuc0/pM91cYO47azQ9n8YY43SB83EJe57CvTTGWBv7fsbruXOWhXWdZ9+Z09TVdV6brqlz/pzG7buobO2s0c6ZH87p7Oz79Fob1xnff6dnuu8aZmM9z3Q9dfZd5zmlOuvpAj1baz80d/u8OK1trKd5gW89f1EAAAAKQQEAACgEBQAAoBAUAACAQlAAAAAKQQEAACgEBQAAoBAUAACAQlAAAAAKQQEAACgEBQAAoBAUAACAQlAAAAAKQQEAACgEBQAAoBAUAACAQlAAAAAKQQEAACgEBQAAoNiNx4f602X97V/J/28zG7Xb5x//+Pj8428amexwyOrmBXLe6ZjXns95bXqtnce5Ls87dqfnU+Pet42busQ9LWHPS0mvdW2cO2nPzr2ntZ3rvLrOa2d47nXOkqewrnFPc7fLx0/vv7NHtuH4nbPs/u55xx6j9x49n/La1M1NVDY779DWWRbe/1O6SEfvmT63xr1vdvu8b+d7J5Wej+mZ09E5H9P33RiX+d5J92jnOjt7pPMd8czWxvebvygAAACFoAAAABSCAgAAUAgKAABAISgAAACFoAAAABSCAgAAUAgKAABAISgAAACFoAAAABSCAgAAUAgKAABAISgAAACFoAAAABSCAgAAUAgKAABAISgAAACFoAAAABSCAgAAUOzW46n8cO53lxltWZ+3bowxlnr932Q9HfOeDeuyRHVzv497zl1eGzufo7J1ze5njDHmdvvs449Oz/1VVreZec9NY/zU2ljP6Tx11vMM7/8S667jnO3lMUY+p6e8Z3pGpHt+jDHm01Nem679zh5Jn31aN0ZvPT/cP//4qc51pnN6iTU6Rn7/nZ7p2uusp1Pjd4vpGdU5d9LazntsucDvSzvvnFTnuyh9pEv4vumMf4l7HyN/po3x582r3/Bi/gGNM3+MxvyH1vQborFH/EUBAAAoBAUAAKAQFAAAgEJQAAAACkEBAAAoBAUAAKAQFAAAgEJQAAAACkEBAAAoBAUAAKAQFAAAgEJQAAAACkEBAAAoBAUAAKAQFAAAgEJQAAAACkEBAAAoBAUAAKDYjXX5bh1mJ2uco6q1cU0zHH9eXcc9R6N2ptf69JSPn9pu89rDISqbnfE7z/7uNqs7Z2tkjDHitbvb5z332TyN7S7veTrmtZ37f26dsyCdpzHG2ITr5NRYfcfGnKbC9bw5NNZTQ3zuPeb3vl5iPS3f8Z3xDeY+n9N5fZMVhmfeGCM/IzrzORvreV3z2tTTYzb040PcMn3fjtFZz/n4a7jvO+s+XXuz8x7pbLt0njrv27Bn67sovf/Oe2RprPu0b+e7KLVp9Gzcf7pHOvtu7sNvk8Y9+YsCAABQCAoAAEAhKAAAAIWgAAAAFIICAABQCAoAAEAhKAAAAIWgAAAAFIICAABQCAoAAEAhKAAAAIWgAAAAFIICAABQCAoAAEAhKAAAAIWgAAAAFIICAABQCAoAAEAhKAAAAMVuvn6v/nRZ8w6nY1y6rktUN2cjv2xmVjfDujHGOJ/z2u32+cff7p537E7tkj2jMcYYmws8p87a24T31JmnSzhc57XpOtmFa6Rjaaz741Ojb2NNPbfGPM2r8DmF51hXfO6le2mMMdP91Og5Hh/y2t0+q0vnvtPz6THvmd7TpdZyeuZ3ntPNi6hsvniZ91zz83mmZ1njfTt/l2d557vgdMpr0/Ok8a0V68xnOn7n++1wyGvTfd/Zo0/hvm+s+5bwfF43+T3NJZ3/fD37iwIAAFAICgAAQCEoAAAAhaAAAAAUggIAAFAICgAAQCEoAAAAhaAAAAAUggIAAFAICgAAQCEoAAAAhaAAAAAUggIAAFAICgAAQCEoAAAAhaAAAAAUggIAAFAICgAAQCEoAAAAxW7c33+3DtttXDp3+6xwXfLxN+H4m0YmOp/y2vRat7vnH//4GLdcn56yuuMx7jmvr/Pamc3/ej7nPdPCJe850vHD+/lVz8Z6SrXWc+P+LyHdI8uatwx7xmfOGPFzWh87+y6vHWt+/6l5OISFF/qd0TGb0xmeT2OM/J3TeDfF939qXGdH+uw778bHh9/sWv6h4TvPKZzTuW+8G9P3fePMj985nfOpcebPzln+zNbG91/8bdCYp7GJ3+L5PM285+bV67g21rn/eD83zrJU48z3FwUAAKAQFAAAgEJQAAAACkEBAAAoBAUAAKAQFAAAgEJQAAAACkEBAAAoBAUAAKAQFAAAgEJQAAAACkEBAAAoBAUAAKAQFAAAgEJQAAAACkEBAAAoBAUAAKAQFAAAgEJQAAAAit147/3v1mE2ssZyzuru7/Ke65rVncOxxxjjcMhrl3D80zHvmWrM/by6zuouce9jjHVdnn/89JlutnnPcJ5a5lVe21mnqevw/nf7vOcl9n1jj8y0tnOdc2Zl213esrOe46bZdY4xxtiHz7Sz7jpzugvnatvYo+k67VxneD6N8yluudzdxrVzk13r7OzRdO7TNTLGmNcvnn/8xn7qzH8q3k2NPTLTM2+MfJ2ma3SMMZ6esqHzjvke7ZwlnXtK56lzPnbWXtwzP8vS77KxadxTOv9LPvf+ogAAABSCAgAAUAgKAABAISgAAACFoAAAABSCAgAAUAgKAABAISgAAACFoAAAABSCAgAAUAgKAABAISgAAACFoAAAABSCAgAAUAgKAABAISgAAACFoAAAABSCAgAAUOzWr3/53Tosa167LmFZVjfGGHMTZp3tNu95Pse1Y7eLypa727jl+vgU1c2rQ9xzHvLaWOfZb2ZUtj5l997pOdfGdaZmNvYYY4zOerrP1sna6Dl3+6ywsUda9xTWrqdj3DK9/9nZ9+k8dYRr9FcXEJ5ljfW8vnuX1Z1Pcc+5z+cpnv/03sfI12mn5/VNVte5905teK1r+A4dY4zx+JjVPdzHLVt7JHznrI8Pccv4/dA4n9NviM6Zux7zsyzVOsvCtXeRb63Ovmucj3Nm515nj8T31Hn2jW+Y+Jl23iPhd9nyFJ4Pw18UAACAbyAoAAAAhaAAAAAUggIAAFAICgAAQCEoAAAAhaAAAAAUggIAAFAICgAAQCEoAAAAhaAAAAAUggIAAFAICgAAQCEoAAAAhaAAAAAUggIAAFAICgAAQCEoAAAAhaAAAAAUu3n9ov70cMg7HK6f72r+r3l8zIvX9dnHH09Pee1mZmU/+JPf8GKeSTpPp2Pe8/4uH/6YzenaGf98znrOh7jlJuyZPvcxxliPp7g27TtfvMx7pmbj9wYvX+e1m202/BLO/Rhjpuuks5e32XWOfeN8vMrPxzWdp6d8Pc+H+6yus+/SeRqjt6aee/xlyXuG8zSub+KW3/hu/Tbps887jrGG95+eeZ2eY8TPfjbW00z3U2fdhffUuc70eY4xevspFT7TuWnM0wxXX2s9Nb7f0ufUOfPD2rWz7hvfBq3aZ+65uc7fTf6iAAAAFIICAABQCAoAAEAhKAAAAIWgAAAAFIICAABQCAoAAEAhKAAAAIWgAAAAFIICAABQCAoAAEAhKAAAAIWgAAAAFIICAABQCAoAAEAhKAAAAIWgAAAAFIICAABQCAoAAECxG+dT/el5m3d4uHu+q/l/lnNeezxmdeua99w27n8Js9btu7znumR158Y8hbVrOvYYYyyNOQ1tbm7i2jW9p4eHuOdyH67nxhrZXF/HteP6RV6buruNytL5HGOMcfs2Lp0z3CObmY9/gbU3Doesbjau8ylfezM9yzYX+P3O0tj36fMcY4w1vKfO+KnTN7zbvm34cN9vbvL9eZGztLFH5m6fFXbed5eQXucYY+zCtdc5yy6h872R1nb2yCV6pt9lnbnvPPtD+B7dh+f4GGP98vOssHHmzcY3zEX2XnqW7HZxS39RAAAACkEBAAAoBAUAAKAQFAAAgEJQAAAACkEBAAAoBAUAAKAQFAAAgEJQAAAACkEBAAAoBAUAAKAQFAAAgEJQAAAACkEBAAAoBAUAAKAQFAAAgEJQAAAACkEBAAAoduN0qj/d7xstGlljzrDlNu95FdbuOvd0Aadjo/Ybnsk32TXmfpvN02xc53p+ysdPNZ7TvLrO6jrP/nzO6sL5HGP01l7at7OeNuG+W8O6pjWc0/Xu4fkH3+3i0k06952jJF1PY4z1GO6nRs8xn/93QfOm0XNZsrp1zXuuYc+GeZ2dJelaHmOMeXWVX8A2XKfpXh7jIs++de6Ez369fZv3TOe/ce/xc0rX8hj5O7xhbaz79Zg9p5muuzHitdd633bW6Pr874d5OISFjeu8xPu+I/3ObqxRf1EAAAAKQQEAACgEBQAAoBAUAACAQlAAAAAKQQEAACgEBQAAoBAUAACAQlAAAAAKQQEAACgEBQAAoBAUAACAQlAAAAAKQQEAACgEBQAAoBAUAACAQlAAAAAKQQEAACgEBQAAoNiNl6/qT29exg2Wqxf5aHNmZceHvOXDfVZ4+zbuudzd5uNvsqw1v/dJ3HNcXWd1x6e85/mc16aOp7x2XbK6p8Y9pUOnYzfMNVvLY4yxPtzljdO1t8nHn7t9VvciXHdjjBH2HGOMsdlm43ee0ylce0+Pec/DVVbXuvf8dzHz+iYrXNd8/NMxq+ucD53732bPfiyNZ7+E19q4pxnO07o0zrz0Oju24RodI36PrNf5+34N3+FjjDHP2ZzOznq+hPR87rxv03f4GPE6mffht84YYw3ndO53cc+xD9de493UOnfS0s5ZMi/wu/L0zB0jfz919kg4p53vIn9RAAAACkEBAAAoBAUAAKAQFAAAgEJQAAAACkEBAAAoBAUAAKAQFAAAgEJQAAAACkEBAAAoBAUAAKAQFAAAgEJQAAAACkEBAAAoBAUAAKAQFAAAgEJQAAAACkEBAAAoBAUAAKDYHX/y4/rTZYkbzN02rt1cX2eFh0Pcczkes7qHx7znw0Ncm9qdz3nxnFnZ5g8o523DdbLb5T3D+5+NuV+fnrK65RT3HGu+n9ZwPZ9v7/KenbUXmunzbNRurhr7/gJ7dMxwPe3zNTr3+7x2l9emzu/eRnXL3X3cs/Oc1lO29i6xRrcvX8a18TO91Jm7hufO2zfPP3ZjL3ec77M1tT5m9z7Ghc6ycI9uGt8ls7FHRnhPa+e7LHym67HxHkvfjZ1n1Hk3h2dJx7y+Cgdf86YX+NbrSOe/8/34B/SlCQAA/LYICgAAQCEoAAAAhaAAAAAUggIAAFAICgAAQCEoAAAAhaAAAAAUggIAAFAICgAAQCEoAAAAhaAAAAAUggIAAFAICgAAQCEoAAAAhaAAAAAUggIAAFAICgAAQCEoAAAAxW7/Tz6tPz0d8w6zkTU2M6s75uPP3T4b+uXLuOcIe44xxliWrO7qOm65vv4gqjvfvM577g5R3Tznc7/76udx7fjy86xuOec99+FzajzPud3m46c64+92Ud1FEv7dbV57Oj378MvjQ1yb7vt5la37Vs8X+VmyfvRJXLtc3cS1qc1TNqe7+3d506fHvHZds7rOO+fpKavr7OVzeO6E+3OMMcb7H8Wly3W4pmb4Dh0jPks3p3A+xxijsUc3D/d539Sr96Ky5eZV3HLZX2WFa/iuH2Osjdp5zOZ/03g3z7dfZ4U3jbPskH3DNFboGEv+Htmk75y7t3HPtfPOS6VnyRjxGTUb39nL/V1Wl56jw18UAACAbyAoAAAAhaAAAAAUggIAAFAICgAAQCEoAAAAhaAAAAAUggIAAFAICgAAQCEoAAAAhaAAAAAUggIAAFAICgAAQCEoAAAAhaAAAAAUggIAAFAICgAAQCEoAAAAxfzsP/779bs02L/36iK1qfV0juqOb9/FPed2G9dub66jus1+F/fcXGc9R+M6Y8sSl67HU1w7w/tfHh7z8c/Zs++In/1mxj3P7+7i2odffBnVnR6e4p6XsJ7zdTJmNlezMafbwz6qe/Wnfxz3vIR5OOTFS3YUL0/5sz9+/SaqS8/RMcbYf/BeXHt6d5vV3ef7fhueJYfvfZj3fPkiqpuHq7jnvLmJa8fpGJWtjWe/3N1nQzfejaew5xj5murs+yXsudnl78bj7UNYl9975xtid52dEfvX2Rod4zLfWuk3zBqeY12dOY2t2Xuscz7Oq/zMT+9pbvLf6cf7rrFH/EUBAAAoBAUAAKAQFAAAgEJQAAAACkEBAAAoBAUAAKAQFAAAgEJQAAAACkEBAAAoBAUAAKAQFAAAgEJQAAAACkEBAAAoBAUAAKAQFAAAgEJQAAAACkEBAAAoBAUAAKAQFAAAgGLe/vf/tpaf7vZxg2V3yEdb61DfZK5L3HI+PUR1m89+GvdcH7OeHeunfxHXnl6+H9Utm/w5bZZjVLd9vI17br/6PK49/fhHWc/33ot7zv0urk2t53M29nabN12ydT/GGOspe07z6jof/8XLrO4mrBtjLIebuHYN52oen+KeqRmeOWOMsW7C61yyNTLGGPOcPc8xxli34X5eTvn44f2vc+Y9nx7j2rF9/j060vl/9yZuud6F597Mf7c2P/4krl1ef5jVNd638XpqvG87NqdsP28e8ndOeq3r1Yu45en6VVZ3yM/Hp31em9qd8u+Sm7efRXXbt7/MLyA8x9Nz9FfFjW+9h/us8PZt3HNJ933jPbJ5nX/DLN//x1ndIX/fz/D9sL3Nz0d/UQAAAApBAQAAKAQFAACgEBQAAIBCUAAAAApBAQAAKAQFAACgEBQAAIBCUAAAAApBAQAAKAQFAACgEBQAAIBCUAAAAApBAQAAKAQFAACgEBQAAIBCUAAAAApBAQAAKAQFAACgmD/6D/9u/fUf/vInX8YN7j6/e9YLGmOM3fWuUbuN6l5+/KrRcx/XrssS1X3+11/EPW//9j6qe/ryGPfc3mSZ8PWfvYh7fvwXH+e1//LTqO7p63dxz+PtQ1S32WVrZIwx3n32dVT39u/exD0Prw5x7ff+/B9FdTff/yDuudlm9//41du4Z8fh/ZdR3fYqn6fNIat9+EV+ln31vz+L6u6+yNfo7efZXu548dF1XPu9f/ZJVHf90Xtxz8ev8vt/fJO9Hzp7ND1z3/59vkfffXYb1c1t/ru17T6vffOjbPyOlz+8ieo+/PSDuOfrH+S16b7f3VzFPfevs/f45jrfIzM8d2Z45owxxpz5s1/usmd/fpevkdufZmfZF3/1s7jn3RfP/623nMvn57dal6y2s+/Sd/PhZb5Gl9M5rt2/yMZ/8b3Xcc+bj9+P6tL5HMNfFAAAgG8gKAAAAIWgAAAAFIICAABQCAoAAEAhKAAAAIWgAAAAFIICAABQCAoAAEAhKAAAAIWgAAAAFIICAABQCAoAAEAhKAAAAIWgAAAAFIICAABQCAoAAEAhKAAAAMX8X3/9d+uv//CPHn8SN9g/3ca1ty+/H9V9tfk47vn18VVU91efvY57fvWmTMm3ejpmtf/2X/8i7vnDd38Z1e3vvox7LvvrqO7LD/8s7vk/f/bP49r/8p//R1T3p//qz+Oef/zDD6O6Zc2f50cfXUV1n3y8jXvu8tLx7i671t12xj0/eJ31/KPXD3HP7WaJa989HqK6n7/Zxz3TPfr4lD/7f/FPs3v66Cafp/cP7+LalzOrPY18nt6cs3Pvy/uXcc8vbrPnOcYYn374Nqrbzvw5ff2YnWWfv8uv8+fhUdo4SsYnH+W1/+YHP4vq3j99EffcLseo7nH3Iu75ZmZn7hhjfP7wflR3f9zFPQ+7c1S332R1Y4xxs8vmaTPzM69Tux1Z7VdP+R79yRdZ7Z98eB/3/PjmTVS3n9l8dt0v2b7/26/zNfqXP87eow8P+Xr64P18PX/4Xjb+Xf7KGX/z08eo7u9/+nXc018UAACAQlAAAAAKQQEAACgEBQAAoBAUAACAQlAAAAAKQQEAACgEBQAAoBAUAACAQlAAAAAKQQEAACgEBQAAoBAUAACAQlAAAACK/wPsfwSZtENgcAAAAABJRU5ErkJggg==;imageBorder=default;" parent="1" vertex="1">
                    <mxGeometry x="50" y="95" width="75" height="75" as="geometry"/>
                </mxCell>
                <mxCell id="50" value="Input&amp;nbsp;&lt;br&gt;75 x75 x3" style="text;html=1;strokeColor=none;fillColor=none;align=center;verticalAlign=middle;whiteSpace=wrap;rounded=0;" parent="1" vertex="1">
                    <mxGeometry x="57.5" y="210" width="60" height="30" as="geometry"/>
                </mxCell>
                <mxCell id="37" value="" style="whiteSpace=wrap;html=1;aspect=fixed;fillColor=#575757;" parent="1" vertex="1">
                    <mxGeometry x="85" y="122.5" width="20" height="20" as="geometry"/>
                </mxCell>
                <mxCell id="51" value="" style="group" parent="1" vertex="1" connectable="0">
                    <mxGeometry x="160" y="60" width="125" height="125" as="geometry"/>
                </mxCell>
                <mxCell id="19" value="" style="group" parent="51" vertex="1" connectable="0">
                    <mxGeometry width="85" height="85" as="geometry"/>
                </mxCell>
                <mxCell id="20" value="" style="group" parent="19" vertex="1" connectable="0">
                    <mxGeometry x="20" y="20" width="65" height="65" as="geometry"/>
                </mxCell>
                <mxCell id="21" value="" style="whiteSpace=wrap;html=1;aspect=fixed;fillColor=#808080;" parent="20" vertex="1">
                    <mxGeometry width="55" height="55" as="geometry"/>
                </mxCell>
                <mxCell id="22" value="" style="whiteSpace=wrap;html=1;aspect=fixed;fillColor=#D9D9D9;" parent="20" vertex="1">
                    <mxGeometry x="10" y="10" width="55" height="55" as="geometry"/>
                </mxCell>
                <mxCell id="23" value="" style="group" parent="51" vertex="1" connectable="0">
                    <mxGeometry x="20" y="20" width="105" height="105" as="geometry"/>
                </mxCell>
                <mxCell id="24" value="" style="whiteSpace=wrap;html=1;aspect=fixed;fillColor=#808080;" parent="23" vertex="1">
                    <mxGeometry width="55" height="55" as="geometry"/>
                </mxCell>
                <mxCell id="25" value="" style="whiteSpace=wrap;html=1;aspect=fixed;fillColor=#D9D9D9;" parent="23" vertex="1">
                    <mxGeometry x="10" y="10" width="55" height="55" as="geometry"/>
                </mxCell>
                <mxCell id="26" value="" style="group" parent="23" vertex="1" connectable="0">
                    <mxGeometry x="20" y="20" width="85" height="85" as="geometry"/>
                </mxCell>
                <mxCell id="27" value="" style="whiteSpace=wrap;html=1;aspect=fixed;fillColor=#808080;" parent="26" vertex="1">
                    <mxGeometry width="55" height="55" as="geometry"/>
                </mxCell>
                <mxCell id="28" value="" style="whiteSpace=wrap;html=1;aspect=fixed;fillColor=#D9D9D9;" parent="26" vertex="1">
                    <mxGeometry x="10" y="10" width="55" height="55" as="geometry"/>
                </mxCell>
                <mxCell id="29" value="" style="group" parent="26" vertex="1" connectable="0">
                    <mxGeometry x="20" y="20" width="65" height="65" as="geometry"/>
                </mxCell>
                <mxCell id="30" value="" style="whiteSpace=wrap;html=1;aspect=fixed;fillColor=#808080;" parent="29" vertex="1">
                    <mxGeometry width="55" height="55" as="geometry"/>
                </mxCell>
                <mxCell id="31" value="" style="whiteSpace=wrap;html=1;aspect=fixed;fillColor=#D9D9D9;" parent="29" vertex="1">
                    <mxGeometry x="10" y="10" width="55" height="55" as="geometry"/>
                </mxCell>
                <mxCell id="69" value="" style="whiteSpace=wrap;html=1;aspect=fixed;fillColor=#575757;" parent="29" vertex="1">
                    <mxGeometry x="30" y="40" width="15" height="15" as="geometry"/>
                </mxCell>
                <mxCell id="48" style="edgeStyle=none;html=1;exitX=1;exitY=0;exitDx=0;exitDy=0;entryX=0.545;entryY=0.364;entryDx=0;entryDy=0;entryPerimeter=0;endArrow=none;" parent="1" source="37" target="31" edge="1">
                    <mxGeometry relative="1" as="geometry"/>
                </mxCell>
                <mxCell id="49" style="edgeStyle=none;html=1;exitX=0.75;exitY=1;exitDx=0;exitDy=0;endArrow=none;" parent="1" source="37" edge="1">
                    <mxGeometry relative="1" as="geometry">
                        <mxPoint x="258" y="150" as="targetPoint"/>
                    </mxGeometry>
                </mxCell>
                <mxCell id="53" value="" style="group" parent="1" vertex="1" connectable="0">
                    <mxGeometry x="290" y="60" width="125" height="125" as="geometry"/>
                </mxCell>
                <mxCell id="54" value="" style="group" parent="53" vertex="1" connectable="0">
                    <mxGeometry width="85" height="85" as="geometry"/>
                </mxCell>
                <mxCell id="57" value="" style="group" parent="54" vertex="1" connectable="0">
                    <mxGeometry x="20" y="20" width="65" height="65" as="geometry"/>
                </mxCell>
                <mxCell id="58" value="" style="whiteSpace=wrap;html=1;aspect=fixed;fillColor=#808080;" parent="57" vertex="1">
                    <mxGeometry width="55" height="55" as="geometry"/>
                </mxCell>
                <mxCell id="59" value="" style="whiteSpace=wrap;html=1;aspect=fixed;fillColor=#D9D9D9;" parent="57" vertex="1">
                    <mxGeometry x="10" y="10" width="55" height="55" as="geometry"/>
                </mxCell>
                <mxCell id="60" value="" style="group" parent="53" vertex="1" connectable="0">
                    <mxGeometry x="20" y="20" width="105" height="105" as="geometry"/>
                </mxCell>
                <mxCell id="61" value="" style="whiteSpace=wrap;html=1;aspect=fixed;fillColor=#808080;" parent="60" vertex="1">
                    <mxGeometry width="55" height="55" as="geometry"/>
                </mxCell>
                <mxCell id="62" value="" style="whiteSpace=wrap;html=1;aspect=fixed;fillColor=#D9D9D9;" parent="60" vertex="1">
                    <mxGeometry x="10" y="10" width="55" height="55" as="geometry"/>
                </mxCell>
                <mxCell id="63" value="" style="group" parent="60" vertex="1" connectable="0">
                    <mxGeometry x="20" y="20" width="85" height="85" as="geometry"/>
                </mxCell>
                <mxCell id="64" value="" style="whiteSpace=wrap;html=1;aspect=fixed;fillColor=#808080;" parent="63" vertex="1">
                    <mxGeometry width="55" height="55" as="geometry"/>
                </mxCell>
                <mxCell id="65" value="" style="whiteSpace=wrap;html=1;aspect=fixed;fillColor=#D9D9D9;" parent="63" vertex="1">
                    <mxGeometry x="10" y="10" width="55" height="55" as="geometry"/>
                </mxCell>
                <mxCell id="66" value="" style="group" parent="63" vertex="1" connectable="0">
                    <mxGeometry x="20" y="20" width="65" height="65" as="geometry"/>
                </mxCell>
                <mxCell id="67" value="" style="whiteSpace=wrap;html=1;aspect=fixed;fillColor=#808080;" parent="66" vertex="1">
                    <mxGeometry width="55" height="55" as="geometry"/>
                </mxCell>
                <mxCell id="68" value="" style="whiteSpace=wrap;html=1;aspect=fixed;fillColor=#D9D9D9;" parent="66" vertex="1">
                    <mxGeometry x="10" y="10" width="55" height="55" as="geometry"/>
                </mxCell>
                <mxCell id="101" value="" style="whiteSpace=wrap;html=1;aspect=fixed;fillColor=#575757;" parent="66" vertex="1">
                    <mxGeometry x="40" y="40" width="15" height="15" as="geometry"/>
                </mxCell>
                <mxCell id="70" style="edgeStyle=none;html=1;exitX=0.75;exitY=0;exitDx=0;exitDy=0;entryX=0.545;entryY=0.364;entryDx=0;entryDy=0;entryPerimeter=0;endArrow=none;" parent="1" source="69" target="68" edge="1">
                    <mxGeometry relative="1" as="geometry"/>
                </mxCell>
                <mxCell id="71" style="edgeStyle=none;html=1;exitX=0.75;exitY=1;exitDx=0;exitDy=0;endArrow=none;" parent="1" source="69" edge="1">
                    <mxGeometry relative="1" as="geometry">
                        <mxPoint x="390" y="150" as="targetPoint"/>
                    </mxGeometry>
                </mxCell>
                <mxCell id="72" value="" style="group;aspect=fixed;" parent="1" vertex="1" connectable="0">
                    <mxGeometry x="430" y="70" width="100" height="100" as="geometry"/>
                </mxCell>
                <mxCell id="73" value="" style="group" parent="72" vertex="1" connectable="0">
                    <mxGeometry width="68" height="68" as="geometry"/>
                </mxCell>
                <mxCell id="79" value="" style="group" parent="72" vertex="1" connectable="0">
                    <mxGeometry x="16" y="16" width="84" height="84" as="geometry"/>
                </mxCell>
                <mxCell id="82" value="" style="group" parent="79" vertex="1" connectable="0">
                    <mxGeometry x="16" y="16" width="68" height="68" as="geometry"/>
                </mxCell>
                <mxCell id="83" value="" style="whiteSpace=wrap;html=1;aspect=fixed;fillColor=#808080;" parent="82" vertex="1">
                    <mxGeometry width="44" height="44" as="geometry"/>
                </mxCell>
                <mxCell id="84" value="" style="whiteSpace=wrap;html=1;aspect=fixed;fillColor=#D9D9D9;" parent="82" vertex="1">
                    <mxGeometry x="8" y="8" width="44" height="44" as="geometry"/>
                </mxCell>
                <mxCell id="85" value="" style="group" parent="82" vertex="1" connectable="0">
                    <mxGeometry x="16" y="16" width="52" height="52" as="geometry"/>
                </mxCell>
                <mxCell id="86" value="" style="whiteSpace=wrap;html=1;aspect=fixed;fillColor=#808080;" parent="85" vertex="1">
                    <mxGeometry width="44" height="44" as="geometry"/>
                </mxCell>
                <mxCell id="87" value="" style="whiteSpace=wrap;html=1;aspect=fixed;fillColor=#D9D9D9;" parent="85" vertex="1">
                    <mxGeometry x="8" y="8" width="44" height="44" as="geometry"/>
                </mxCell>
                <mxCell id="136" value="" style="whiteSpace=wrap;html=1;aspect=fixed;fillColor=#575757;" parent="85" vertex="1">
                    <mxGeometry x="34" y="34" width="10" height="10" as="geometry"/>
                </mxCell>
                <mxCell id="102" style="edgeStyle=none;html=1;exitX=1;exitY=0;exitDx=0;exitDy=0;entryX=0.773;entryY=0.318;entryDx=0;entryDy=0;entryPerimeter=0;endArrow=none;" parent="1" source="101" target="87" edge="1">
                    <mxGeometry relative="1" as="geometry"/>
                </mxCell>
                <mxCell id="103" style="edgeStyle=none;html=1;exitX=1;exitY=0.75;exitDx=0;exitDy=0;endArrow=none:" parent="1" source="101" edge="1">
                    <mxGeometry relative="1" as="geometry">
                        <mxPoint x="520" y="140" as="targetPoint"/>
                    </mxGeometry>
                </mxCell>
                <mxCell id="104" value="" style="group;aspect=fixed;" parent="1" vertex="1" connectable="0">
                    <mxGeometry x="660" y="80" width="90" height="90" as="geometry"/>
                </mxCell>
                <mxCell id="105" value="" style="group" parent="104" vertex="1" connectable="0">
                    <mxGeometry width="61.19999999999999" height="61.19999999999999" as="geometry"/>
                </mxCell>
                <mxCell id="108" value="" style="group" parent="105" vertex="1" connectable="0">
                    <mxGeometry x="14.399999999999999" y="14.399999999999999" width="46.8" height="46.8" as="geometry"/>
                </mxCell>
                <mxCell id="109" value="" style="whiteSpace=wrap;html=1;aspect=fixed;fillColor=#808080;" parent="108" vertex="1">
                    <mxGeometry width="39.599999999999994" height="39.599999999999994" as="geometry"/>
                </mxCell>
                <mxCell id="110" value="" style="whiteSpace=wrap;html=1;aspect=fixed;fillColor=#D9D9D9;" parent="108" vertex="1">
                    <mxGeometry x="7.199999999999999" y="7.199999999999999" width="39.599999999999994" height="39.599999999999994" as="geometry"/>
                </mxCell>
                <mxCell id="111" value="" style="group" parent="104" vertex="1" connectable="0">
                    <mxGeometry x="14.399999999999999" y="14.399999999999999" width="75.6" height="75.6" as="geometry"/>
                </mxCell>
                <mxCell id="112" value="" style="whiteSpace=wrap;html=1;aspect=fixed;fillColor=#808080;" parent="111" vertex="1">
                    <mxGeometry width="39.599999999999994" height="39.599999999999994" as="geometry"/>
                </mxCell>
                <mxCell id="113" value="" style="whiteSpace=wrap;html=1;aspect=fixed;fillColor=#D9D9D9;" parent="111" vertex="1">
                    <mxGeometry x="7.199999999999999" y="7.199999999999999" width="39.599999999999994" height="39.599999999999994" as="geometry"/>
                </mxCell>
                <mxCell id="114" value="" style="group" parent="111" vertex="1" connectable="0">
                    <mxGeometry x="14.399999999999999" y="14.399999999999999" width="61.19999999999999" height="61.19999999999999" as="geometry"/>
                </mxCell>
                <mxCell id="115" value="" style="whiteSpace=wrap;html=1;aspect=fixed;fillColor=#808080;" parent="114" vertex="1">
                    <mxGeometry width="39.599999999999994" height="39.599999999999994" as="geometry"/>
                </mxCell>
                <mxCell id="116" value="" style="whiteSpace=wrap;html=1;aspect=fixed;fillColor=#D9D9D9;" parent="114" vertex="1">
                    <mxGeometry x="7.199999999999999" y="7.199999999999999" width="39.599999999999994" height="39.599999999999994" as="geometry"/>
                </mxCell>
                <mxCell id="117" value="" style="group" parent="114" vertex="1" connectable="0">
                    <mxGeometry x="14.399999999999999" y="14.399999999999999" width="46.8" height="46.8" as="geometry"/>
                </mxCell>
                <mxCell id="118" value="" style="whiteSpace=wrap;html=1;aspect=fixed;fillColor=#808080;" parent="117" vertex="1">
                    <mxGeometry width="39.599999999999994" height="39.599999999999994" as="geometry"/>
                </mxCell>
                <mxCell id="119" value="" style="whiteSpace=wrap;html=1;aspect=fixed;fillColor=#D9D9D9;" parent="117" vertex="1">
                    <mxGeometry x="7.199999999999999" y="7.199999999999999" width="39.599999999999994" height="39.599999999999994" as="geometry"/>
                </mxCell>
                <mxCell id="146" value="" style="whiteSpace=wrap;html=1;aspect=fixed;fillColor=#575757;" parent="117" vertex="1">
                    <mxGeometry x="22.000000000000114" y="29.599999999999994" width="10" height="10" as="geometry"/>
                </mxCell>
                <mxCell id="120" value="" style="group;aspect=fixed;" parent="1" vertex="1" connectable="0">
                    <mxGeometry x="560" y="80" width="90" height="90" as="geometry"/>
                </mxCell>
                <mxCell id="121" value="" style="group" parent="120" vertex="1" connectable="0">
                    <mxGeometry width="61.19999999999999" height="61.19999999999999" as="geometry"/>
                </mxCell>
                <mxCell id="124" value="" style="group" parent="121" vertex="1" connectable="0">
                    <mxGeometry x="14.399999999999999" y="14.399999999999999" width="46.8" height="46.8" as="geometry"/>
                </mxCell>
                <mxCell id="125" value="" style="whiteSpace=wrap;html=1;aspect=fixed;fillColor=#808080;" parent="124" vertex="1">
                    <mxGeometry width="39.599999999999994" height="39.599999999999994" as="geometry"/>
                </mxCell>
                <mxCell id="126" value="" style="whiteSpace=wrap;html=1;aspect=fixed;fillColor=#D9D9D9;" parent="124" vertex="1">
                    <mxGeometry x="7.199999999999999" y="7.199999999999999" width="39.599999999999994" height="39.599999999999994" as="geometry"/>
                </mxCell>
                <mxCell id="127" value="" style="group" parent="120" vertex="1" connectable="0">
                    <mxGeometry x="14.399999999999999" y="14.399999999999999" width="75.6" height="75.6" as="geometry"/>
                </mxCell>
                <mxCell id="128" value="" style="whiteSpace=wrap;html=1;aspect=fixed;fillColor=#808080;" parent="127" vertex="1">
                    <mxGeometry width="39.599999999999994" height="39.599999999999994" as="geometry"/>
                </mxCell>
                <mxCell id="129" value="" style="whiteSpace=wrap;html=1;aspect=fixed;fillColor=#D9D9D9;" parent="127" vertex="1">
                    <mxGeometry x="7.199999999999999" y="7.199999999999999" width="39.599999999999994" height="39.599999999999994" as="geometry"/>
                </mxCell>
                <mxCell id="130" value="" style="group" parent="127" vertex="1" connectable="0">
                    <mxGeometry x="14.399999999999999" y="14.399999999999999" width="61.19999999999999" height="61.19999999999999" as="geometry"/>
                </mxCell>
                <mxCell id="131" value="" style="whiteSpace=wrap;html=1;aspect=fixed;fillColor=#808080;" parent="130" vertex="1">
                    <mxGeometry width="39.599999999999994" height="39.599999999999994" as="geometry"/>
                </mxCell>
                <mxCell id="132" value="" style="whiteSpace=wrap;html=1;aspect=fixed;fillColor=#D9D9D9;" parent="130" vertex="1">
                    <mxGeometry x="7.199999999999999" y="7.199999999999999" width="39.599999999999994" height="39.599999999999994" as="geometry"/>
                </mxCell>
                <mxCell id="133" value="" style="group" parent="130" vertex="1" connectable="0">
                    <mxGeometry x="14.399999999999999" y="14.399999999999999" width="46.8" height="46.8" as="geometry"/>
                </mxCell>
                <mxCell id="134" value="" style="whiteSpace=wrap;html=1;aspect=fixed;fillColor=#808080;" parent="133" vertex="1">
                    <mxGeometry width="39.599999999999994" height="39.599999999999994" as="geometry"/>
                </mxCell>
                <mxCell id="135" value="" style="whiteSpace=wrap;html=1;aspect=fixed;fillColor=#D9D9D9;" parent="133" vertex="1">
                    <mxGeometry x="7.199999999999999" y="7.199999999999999" width="39.599999999999994" height="39.599999999999994" as="geometry"/>
                </mxCell>
                <mxCell id="142" value="" style="whiteSpace=wrap;html=1;aspect=fixed;fillColor=#575757;" parent="133" vertex="1">
                    <mxGeometry x="18.40000000000009" y="29.599999999999994" width="10" height="10" as="geometry"/>
                </mxCell>
                <mxCell id="138" style="edgeStyle=none;html=1;exitX=1;exitY=0;exitDx=0;exitDy=0;entryX=0.495;entryY=0.242;entryDx=0;entryDy=0;entryPerimeter=0;endArrow=none;" parent="1" source="136" target="135" edge="1">
                    <mxGeometry relative="1" as="geometry"/>
                </mxCell>
                <mxCell id="139" style="edgeStyle=none;html=1;exitX=0.75;exitY=1;exitDx=0;exitDy=0;endArrow=none;" parent="1" source="136" edge="1">
                    <mxGeometry relative="1" as="geometry">
                        <mxPoint x="630" y="140" as="targetPoint"/>
                    </mxGeometry>
                </mxCell>
                <mxCell id="143" style="edgeStyle=none;html=1;exitX=0.75;exitY=0;exitDx=0;exitDy=0;entryX=0.747;entryY=0.242;entryDx=0;entryDy=0;entryPerimeter=0;endArrow=none;" parent="1" source="142" target="119" edge="1">
                    <mxGeometry relative="1" as="geometry"/>
                </mxCell>
                <mxCell id="145" style="edgeStyle=none;html=1;exitX=1;exitY=0.75;exitDx=0;exitDy=0;endArrow=none;" parent="1" source="142" edge="1">
                    <mxGeometry relative="1" as="geometry">
                        <mxPoint x="740" y="140" as="targetPoint"/>
                    </mxGeometry>
                </mxCell>
                <mxCell id="176" style="edgeStyle=none;html=1;exitX=1;exitY=0;exitDx=0;exitDy=0;entryX=0.5;entryY=0;entryDx=0;entryDy=0;endArrow=none;endFill=0;" parent="1" source="165" target="175" edge="1">
                    <mxGeometry relative="1" as="geometry"/>
                </mxCell>
                <mxCell id="177" style="edgeStyle=none;html=1;exitX=0.75;exitY=1;exitDx=0;exitDy=0;entryX=0.5;entryY=1;entryDx=0;entryDy=0;endArrow=none;endFill=0;" parent="1" source="165" target="175" edge="1">
                    <mxGeometry relative="1" as="geometry"/>
                </mxCell>
                <mxCell id="165" value="" style="rounded=0;whiteSpace=wrap;html=1;fillColor=#575757;rotation=90;direction=north;" parent="1" vertex="1">
                    <mxGeometry x="827" y="130" width="150" height="25" as="geometry"/>
                </mxCell>
                <mxCell id="148" value="" style="group" parent="1" vertex="1" connectable="0">
                    <mxGeometry x="770" y="70" width="61.19999999999999" height="61.19999999999999" as="geometry"/>
                </mxCell>
                <mxCell id="154" value="" style="group" parent="1" vertex="1" connectable="0">
                    <mxGeometry x="784.4" y="84.4" width="75.6" height="75.6" as="geometry"/>
                </mxCell>
                <mxCell id="157" value="" style="group" parent="154" vertex="1" connectable="0">
                    <mxGeometry x="14.399999999999999" y="14.399999999999999" width="61.19999999999999" height="61.19999999999999" as="geometry"/>
                </mxCell>
                <mxCell id="158" value="" style="whiteSpace=wrap;html=1;aspect=fixed;fillColor=#808080;" parent="157" vertex="1">
                    <mxGeometry width="39.599999999999994" height="39.599999999999994" as="geometry"/>
                </mxCell>
                <mxCell id="159" value="" style="whiteSpace=wrap;html=1;aspect=fixed;fillColor=#D9D9D9;" parent="157" vertex="1">
                    <mxGeometry x="7.199999999999999" y="7.199999999999999" width="39.599999999999994" height="39.599999999999994" as="geometry"/>
                </mxCell>
                <mxCell id="160" value="" style="group" parent="157" vertex="1" connectable="0">
                    <mxGeometry x="14.399999999999999" y="14.399999999999999" width="46.8" height="46.8" as="geometry"/>
                </mxCell>
                <mxCell id="161" value="" style="whiteSpace=wrap;html=1;aspect=fixed;fillColor=#808080;" parent="160" vertex="1">
                    <mxGeometry width="39.599999999999994" height="39.599999999999994" as="geometry"/>
                </mxCell>
                <mxCell id="162" value="" style="whiteSpace=wrap;html=1;aspect=fixed;fillColor=#D9D9D9;" parent="160" vertex="1">
                    <mxGeometry x="7.199999999999999" y="7.199999999999999" width="39.599999999999994" height="39.599999999999994" as="geometry"/>
                </mxCell>
                <mxCell id="169" style="edgeStyle=none;html=1;exitX=1;exitY=1;exitDx=0;exitDy=0;endArrow=none;" parent="1" source="146" edge="1">
                    <mxGeometry relative="1" as="geometry">
                        <mxPoint x="850.1724137931036" y="129.99999999999997" as="targetPoint"/>
                    </mxGeometry>
                </mxCell>
                <mxCell id="167" style="edgeStyle=none;html=1;exitX=0.75;exitY=0;exitDx=0;exitDy=0;entryX=0.747;entryY=0.242;entryDx=0;entryDy=0;entryPerimeter=0;endArrow=none;" parent="1" source="146" target="162" edge="1">
                    <mxGeometry relative="1" as="geometry"/>
                </mxCell>
                <mxCell id="173" style="edgeStyle=none;html=1;exitX=0.75;exitY=0;exitDx=0;exitDy=0;entryX=0;entryY=0;entryDx=0;entryDy=0;endArrow=none;" parent="1" source="158" target="165" edge="1">
                    <mxGeometry relative="1" as="geometry"/>
                </mxCell>
                <mxCell id="174" style="edgeStyle=none;html=1;exitX=0.5;exitY=1;exitDx=0;exitDy=0;entryX=0;entryY=1;entryDx=0;entryDy=0;endArrow=none;" parent="1" source="162" target="165" edge="1">
                    <mxGeometry relative="1" as="geometry"/>
                </mxCell>
                <mxCell id="179" style="edgeStyle=none;html=1;exitX=0.5;exitY=0;exitDx=0;exitDy=0;entryX=0.75;entryY=0;entryDx=0;entryDy=0;endArrow=none;endFill=0;" parent="1" source="175" target="178" edge="1">
                    <mxGeometry relative="1" as="geometry"/>
                </mxCell>
                <mxCell id="180" style="edgeStyle=none;html=1;exitX=0.5;exitY=1;exitDx=0;exitDy=0;entryX=0.5;entryY=1;entryDx=0;entryDy=0;endArrow=none;endFill=0;" parent="1" source="175" target="178" edge="1">
                    <mxGeometry relative="1" as="geometry"/>
                </mxCell>
                <mxCell id="175" value="" style="rounded=0;whiteSpace=wrap;html=1;fillColor=#575757;rotation=90;direction=north;" parent="1" vertex="1">
                    <mxGeometry x="910" y="131.2" width="100" height="25" as="geometry"/>
                </mxCell>
                <mxCell id="187" style="edgeStyle=none;html=1;exitX=1;exitY=0.5;exitDx=0;exitDy=0;entryX=0;entryY=0;entryDx=0;entryDy=0;endArrow=block;endFill=1;" parent="1" source="178" target="184" edge="1">
                    <mxGeometry relative="1" as="geometry"/>
                </mxCell>
                <mxCell id="178" value="" style="rounded=0;whiteSpace=wrap;html=1;fillColor=#575757;rotation=90;direction=north;" parent="1" vertex="1">
                    <mxGeometry x="1015" y="131.2" width="100" height="25" as="geometry"/>
                </mxCell>
                <mxCell id="186" value="" style="group" parent="1" vertex="1" connectable="0">
                    <mxGeometry x="1112.5" y="94.99999999999999" width="25" height="100" as="geometry"/>
                </mxCell>
                <mxCell id="182" value="" style="rounded=0;whiteSpace=wrap;html=1;fillColor=#DBDBDB;rotation=90;direction=north;" parent="186" vertex="1">
                    <mxGeometry x="-37.5" y="37.5" width="100" height="25" as="geometry"/>
                </mxCell>
                <mxCell id="183" value="" style="shape=partialRectangle;whiteSpace=wrap;html=1;left=0;right=0;fillColor=none;" parent="186" vertex="1">
                    <mxGeometry y="23.80000000000001" width="25" height="25" as="geometry"/>
                </mxCell>
                <mxCell id="184" value="" style="shape=partialRectangle;whiteSpace=wrap;html=1;left=0;right=0;fillColor=none;" parent="186" vertex="1">
                    <mxGeometry y="48.80000000000001" width="25" height="25" as="geometry"/>
                </mxCell>
                <mxCell id="188" value="Convolution&lt;br&gt;64x5x5&lt;br&gt;+&lt;br&gt;ReLu" style="text;html=1;strokeColor=none;fillColor=none;align=center;verticalAlign=middle;whiteSpace=wrap;rounded=0;" parent="1" vertex="1">
                    <mxGeometry x="210" y="250" width="60" height="30" as="geometry"/>
                </mxCell>
                <mxCell id="189" value="Convolution&lt;br&gt;64x5x5&lt;br&gt;+&lt;br&gt;ReLu" style="text;html=1;strokeColor=none;fillColor=none;align=center;verticalAlign=middle;whiteSpace=wrap;rounded=0;" parent="1" vertex="1">
                    <mxGeometry x="334" y="250" width="60" height="30" as="geometry"/>
                </mxCell>
                <mxCell id="190" value="Convolution&lt;br&gt;64x3x3&lt;br&gt;+&lt;br&gt;LeakyReLu" style="text;html=1;strokeColor=none;fillColor=none;align=center;verticalAlign=middle;whiteSpace=wrap;rounded=0;" parent="1" vertex="1">
                    <mxGeometry x="584" y="250" width="60" height="30" as="geometry"/>
                </mxCell>
                <mxCell id="191" value="Convolution&lt;br&gt;64x3x3&lt;br&gt;+&lt;br&gt;ReLu&lt;br&gt;+&lt;br&gt;Dropout" style="text;html=1;strokeColor=none;fillColor=none;align=center;verticalAlign=middle;whiteSpace=wrap;rounded=0;" parent="1" vertex="1">
                    <mxGeometry x="684" y="250" width="60" height="30" as="geometry"/>
                </mxCell>
                <mxCell id="192" value="Max-Pooling 2x2&lt;br&gt;+&lt;br&gt;Dropout" style="text;html=1;strokeColor=none;fillColor=none;align=center;verticalAlign=middle;whiteSpace=wrap;rounded=0;" parent="1" vertex="1">
                    <mxGeometry x="464" y="250" width="70" height="30" as="geometry"/>
                </mxCell>
                <mxCell id="193" value="Max-Pooling 2x2&lt;br&gt;+&lt;br&gt;Dropout" style="text;html=1;strokeColor=none;fillColor=none;align=center;verticalAlign=middle;whiteSpace=wrap;rounded=0;" parent="1" vertex="1">
                    <mxGeometry x="771.1999999999999" y="250" width="70" height="30" as="geometry"/>
                </mxCell>
                <mxCell id="194" value="Flatten" style="text;html=1;strokeColor=none;fillColor=none;align=center;verticalAlign=middle;whiteSpace=wrap;rounded=0;" parent="1" vertex="1">
                    <mxGeometry x="859.9999999999999" y="250" width="70" height="30" as="geometry"/>
                </mxCell>
                <mxCell id="195" value="Fully Connected&lt;br&gt;4 Units" style="text;html=1;strokeColor=none;fillColor=none;align=center;verticalAlign=middle;whiteSpace=wrap;rounded=0;" parent="1" vertex="1">
                    <mxGeometry x="1019.9999999999999" y="250" width="70" height="30" as="geometry"/>
                </mxCell>
                <mxCell id="196" value="Output&lt;br&gt;4" style="text;html=1;strokeColor=none;fillColor=none;align=center;verticalAlign=middle;whiteSpace=wrap;rounded=0;" parent="1" vertex="1">
                    <mxGeometry x="1090" y="250" width="70" height="30" as="geometry"/>
                </mxCell>
                <mxCell id="198" value="Fully Connected&lt;br&gt;512 Units&lt;br&gt;+&lt;br&gt;Dropout" style="text;html=1;strokeColor=none;fillColor=none;align=center;verticalAlign=middle;whiteSpace=wrap;rounded=0;" parent="1" vertex="1">
                    <mxGeometry x="930" y="250" width="70" height="30" as="geometry"/>
                </mxCell>
            </root>
        </mxGraphModel>
    </diagram>
</mxfile>